<svg width="256" height="66" viewBox="0 0 256 66" fill="none" xmlns="http://www.w3.org/2000/svg">
<path d="M99.9491 18.0151H107.344V46.7858H99.9491V43.3902C97.7316 46.1896 94.6173 47.5918 90.6007 47.5918C86.7766 47.5918 83.4972 46.1232 80.7681 43.1915C78.0334 40.2543 76.6689 36.66 76.6689 32.4032C76.6689 28.1465 78.0334 24.5468 80.7681 21.6151C83.5027 18.6777 86.7821 17.2146 90.6007 17.2146C94.6173 17.2146 97.7316 18.617 99.9491 21.4161V18.0151ZM86.2979 38.2392C87.7891 39.7574 89.6818 40.5138 91.9763 40.5138C94.2706 40.5138 96.1691 39.7574 97.682 38.2392C99.1897 36.7262 99.9491 34.7773 99.9491 32.3977C99.9491 30.0182 99.1952 28.0747 97.682 26.5563C96.1691 25.0435 94.2706 24.2817 91.9763 24.2817C89.6818 24.2817 87.7891 25.0381 86.2979 26.5563C84.8067 28.0747 84.0639 30.0182 84.0639 32.3977C84.0639 34.7773 84.8067 36.7262 86.2979 38.2392Z" fill="white"/>
<path d="M120.088 22.9662C120.776 21.1276 121.915 19.7419 123.5 18.8253C125.084 17.9033 126.856 17.4451 128.804 17.4451V25.7322C126.548 25.4617 124.534 25.9255 122.751 27.1125C120.974 28.2996 120.082 30.2762 120.082 33.0366V46.7898H112.688V18.0193H120.082V22.9662H120.088Z" fill="white"/>
<path d="M145.183 47.5918C140.864 47.5918 137.26 46.1343 134.371 43.2192C131.483 40.304 130.041 36.6986 130.041 32.4032C130.041 28.1078 131.483 24.5024 134.371 21.5873C137.26 18.6723 140.859 17.2146 145.183 17.2146C147.973 17.2146 150.515 17.8883 152.81 19.2299C155.104 20.5714 156.843 22.3769 158.026 24.6406L151.66 28.3784C151.087 27.1913 150.218 26.2472 149.051 25.557C147.885 24.8668 146.575 24.519 145.123 24.519C142.905 24.519 141.068 25.2588 139.615 26.7331C138.162 28.2127 137.436 30.101 137.436 32.4032C137.436 34.6669 138.162 36.5386 139.615 38.0127C141.068 39.4923 142.9 40.2267 145.123 40.2267C146.614 40.2267 147.94 39.89 149.106 39.2218C150.273 38.5538 151.142 37.6206 151.715 36.4337L158.136 40.1162C156.876 42.3799 155.099 44.1908 152.804 45.5545C150.515 46.9127 147.973 47.5918 145.183 47.5918Z" fill="white"/>
<path d="M182.33 18.0152H189.725V46.7858H182.33V43.3903C180.113 46.1896 176.998 47.5918 172.982 47.5918C169.157 47.5918 165.878 46.1233 163.149 43.1915C160.414 40.2544 159.05 36.6601 159.05 32.4032C159.05 28.1466 160.414 24.5466 163.149 21.6149C165.884 18.6777 169.163 17.2146 172.982 17.2146C176.998 17.2146 180.113 18.617 182.33 21.4162V18.0152ZM168.684 38.239C170.175 39.7574 172.068 40.5138 174.363 40.5138C176.657 40.5138 178.555 39.7574 180.069 38.239C181.576 36.7263 182.335 34.7773 182.335 32.3978C182.335 30.0181 181.582 28.0747 180.069 26.5563C178.555 25.0436 176.657 24.2817 174.363 24.2817C172.068 24.2817 170.175 25.0381 168.684 26.5563C167.193 28.0747 166.45 30.0181 166.45 32.3978C166.445 34.7773 167.193 36.7263 168.684 38.239Z" fill="white"/>
<path d="M211.014 17.2146C214.15 17.2146 216.737 18.2691 218.784 20.3783C220.83 22.4872 221.854 25.4024 221.854 29.1236V46.7912H214.459V30.0456C214.459 28.13 213.941 26.6614 212.912 25.6453C211.879 24.6295 210.502 24.1215 208.787 24.1215C206.876 24.1215 205.347 24.7179 204.197 25.9048C203.052 27.0919 202.474 28.8807 202.474 31.2548V46.7912H195.074V18.0208H202.474V21.245C204.268 18.5562 207.119 17.2146 211.014 17.2146Z" fill="white"/>
<path d="M248.606 18.0152H256V46.7858H248.606V43.3903C246.388 46.1896 243.274 47.5918 239.256 47.5918C235.433 47.5918 232.154 46.1233 229.424 43.1915C226.69 40.2544 225.324 36.6601 225.324 32.4032C225.324 28.1466 226.69 24.5466 229.424 21.6149C232.159 18.6777 235.438 17.2146 239.256 17.2146C243.274 17.2146 246.388 18.617 248.606 21.4162V18.0152ZM234.959 38.239C236.451 39.7574 238.344 40.5138 240.639 40.5138C242.932 40.5138 244.83 39.7574 246.344 38.239C247.85 36.7263 248.611 34.7773 248.611 32.3978C248.611 30.0181 247.856 28.0747 246.344 26.5563C244.83 25.0436 242.932 24.2817 240.639 24.2817C238.344 24.2817 236.451 25.0381 234.959 26.5563C233.469 28.0747 232.726 30.0181 232.726 32.3978C232.721 34.7773 233.469 36.7263 234.959 38.239Z" fill="white"/>
<path d="M15.9697 40.1409L14.6389 46.416L4.79029 39.9869L0 34.7241V29.9928L11.1764 24.9565L15.4458 24.5154L15.9697 40.1409Z" fill="#1C4B7E"/>
<path d="M63.3415 36.4727V41.2794L59.3883 45.2491L49.4284 48.6058L40.6064 49.1405L40.4769 49.1283L45.1709 42.5785L45.6255 32.2793L39.7695 26.6326L37.5474 25.6719L34.9941 24.5662L37.8696 24.7987L50.8735 28.539L58.8584 32.3548L63.3415 36.4727Z" fill="#1C4B7E"/>
<path d="M63.3397 36.4694L58.8566 32.3514L50.8717 28.5357L37.8678 24.7954L34.9924 24.5628H34.9894L33.7338 24.4601L23.7227 23.6505L18.535 24.1883L15.4458 24.5085L11.1764 24.9496L0 29.9859L2.1859 26.6233L13.6874 21.8197L16.5719 21.7019L26.842 21.2849L40.0747 22.7381L48.0837 25.1821L52.317 26.4753L60.3019 31.587L63.3397 36.4694Z" fill="#255B8F"/>
<path d="M35.2565 27.8242L33.7331 24.4618L23.7249 23.6521L18.5371 24.1898L17.9199 40.0842L19.2387 41.8154L22.939 39.2777L25.727 39.1749L31.8994 42.1901L35.9671 39.8819L35.2565 27.8242ZM22.9361 35.9301C22.9361 37.0118 22.0629 37.8878 20.985 37.8878C19.9071 37.8878 19.0339 37.0118 19.0339 35.9301V33.7428C19.0339 32.6613 19.9071 31.7851 20.985 31.7851C21.5239 31.7851 22.0117 32.0056 22.3639 32.3591C22.7163 32.7126 22.933 33.202 22.933 33.7428V35.9301H22.9361ZM33.3235 35.9301C33.3235 37.0118 32.4504 37.8878 31.3726 37.8878C30.2946 37.8878 29.4215 37.0118 29.4215 35.9301V33.7428C29.4215 32.6613 30.2946 31.7851 31.3726 31.7851C31.9115 31.7851 32.3992 32.0056 32.7515 32.3591C33.1037 32.7126 33.3235 33.202 33.3235 33.7428V35.9301Z" fill="#FFE97F"/>
<g filter="url(#filter0_d_6135_21420)">
<path d="M19.2358 41.8168L31.8965 42.1915L35.9641 39.8833L35.2565 27.8258L33.7331 24.4632L34.9886 24.5659H34.9917L37.5448 25.6716L39.1587 40.1371L34.6724 48.5179L29.1384 58.8564L27.5999 63.6389L19.2358 56.7687L14.3701 47.69L14.6381 46.412L15.9689 40.1371L15.445 24.5116L18.5342 24.1912L17.92 40.0856L19.2358 41.8168Z" fill="white"/>
</g>
<path d="M45.6228 32.275L45.1682 42.5742L40.4743 49.1241L38.9326 51.2723L36.3462 53.1785L27.5996 63.6348L29.1382 58.8523L34.6722 48.5139L39.1584 40.1331L37.5447 25.6677L39.7666 26.6285L45.6228 32.275Z" fill="#BFC6CD"/>
<path d="M22.9381 33.7428V35.9301C22.9381 37.0116 22.065 37.8878 20.987 37.8878C19.9093 37.8878 19.0361 37.0116 19.0361 35.9301V33.7428C19.0361 32.6611 19.9093 31.7849 20.987 31.7849C21.5261 31.7849 22.0138 32.0055 22.3662 32.359C22.7214 32.7126 22.9381 33.2019 22.9381 33.7428Z" fill="#151D26"/>
<path d="M33.3231 33.7428V35.9301C33.3231 37.0116 32.4499 37.8878 31.372 37.8878C30.294 37.8878 29.4209 37.0116 29.4209 35.9301V33.7428C29.4209 32.6611 30.294 31.7849 31.372 31.7849C31.9111 31.7849 32.3987 32.0055 32.7509 32.359C33.1033 32.7126 33.3231 33.2019 33.3231 33.7428Z" fill="#151D26"/>
<path d="M46.9932 6.5618L39.996 16.0241L40.0742 22.7402L26.8414 21.2871L16.5713 21.704L20.9852 10.9878L33.3239 1.60402L43.0369 -0.000221252L52.9246 2.67051L53.4545 3.81554L46.9932 6.5618Z" fill="#255B8F"/>
<path d="M46.3853 13.6592L48.0833 25.185L40.0744 22.741L39.9961 16.0248L46.9935 6.56245L53.4548 3.81618L48.0563 7.93708L46.3853 13.6592Z" fill="#1C4B7E"/>
<path opacity="0.7" d="M15.4463 24.51L15.5156 26.6128L23.5906 25.6702L33.1201 25.5615L38.4434 26.6128L41.4602 28.2624L39.7682 26.6309L34.9929 24.5645L23.7232 23.6521L15.4463 24.51Z" fill="#848589"/>
<path d="M43.0369 -0.000221252L34.3866 2.20826L24.806 10.9063L22.9363 21.4471L16.5713 21.704L20.9852 10.9878L33.3239 1.60402L43.0369 -0.000221252Z" fill="#4F99CB"/>
<path d="M0 29.9906L11.1764 24.9543L19.0348 22.7428H33.3243C33.3243 22.7428 40.6619 22.8062 40.0718 22.7428C39.4846 22.6793 26.842 21.2927 26.842 21.2927L13.6874 21.8275L2.1859 26.6311L0 29.9906Z" fill="#4F99CB"/>
<path opacity="0.5" d="M15.4458 24.5154L11.1764 24.9565L0 29.9928V34.7241L4.79029 39.9869L14.6389 46.416L8.76164 37.5034L8.99047 32.9264L15.6114 29.4792L15.4458 24.5154Z" fill="#20436F"/>
<path opacity="0.5" d="M34.9941 24.5662L37.8696 24.7987L50.8735 28.539L58.8583 32.3548L50.9278 31.7868L45.6255 32.2793L39.7695 26.6326L34.9941 24.5662Z" fill="#20436F"/>
<path d="M19.0361 33.7459L20.987 34.8395L19.0361 35.9332V33.7459Z" fill="white"/>
<path d="M29.4209 33.7459L31.372 34.8395L29.4209 35.9332V33.7459Z" fill="white"/>
<path d="M27.8502 44.8936C27.82 45.1292 27.7749 45.368 27.7147 45.6065C27.0251 46.1142 26.2334 46.4978 25.3813 46.7275L23.641 46.6338C22.7196 46.3649 21.8795 45.9147 21.1689 45.3165C21.2924 45.0598 21.4189 44.803 21.5484 44.5461C22.015 44.525 22.4517 44.4374 22.8461 44.3045C23.3188 44.5432 23.8729 44.8059 24.4086 44.8905C24.8151 44.8936 25.5168 44.8361 25.9141 44.7456C26.161 44.7003 26.408 44.6398 26.6488 44.5583C27.1065 44.7638 27.2872 44.8301 27.8502 44.8936Z" fill="#FFE97F"/>
<path d="M16.6309 43.6531L17.4559 45.6683L18.9854 47.0488L22.0143 46.0912L23.1614 43.5444L25.7779 43.6955L28.8069 47.0488L29.8366 48.2603L31.8659 48.0641C31.8659 48.0641 34.66 46.7016 34.66 46.4114C34.66 46.1214 35.1298 44.1486 35.1298 44.1486L34.0547 43.4024L22.0684 40.9099L16.6309 43.6531Z" fill="#BFC6CD"/>
<path d="M22.3555 38.6707L24.2462 38.5076L24.7672 38.8883L25.8391 38.846L25.279 39.1753L23.617 39.2327L22.3555 38.6707Z" fill="#BFC6CD"/>
<path d="M26.6875 38.3748L28.9968 39.3628L35.13 44.1513L31.3725 42.1905L26.6875 38.3748Z" fill="#BFC6CD"/>
<path d="M18.4795 41.816L16.6309 43.6589L17.5552 45.3901L18.4795 46.109L21.4844 44.6528L22.8092 43.1513H25.8984L26.9131 44.4202L29.1531 46.9127L31.7213 46.6167L33.8381 44.8855C33.8381 44.8855 34.103 43.6166 34.0579 43.4051C34.0127 43.1937 31.7454 42.1905 31.7454 42.1905L26.6902 38.3748L25.2781 39.1754L23.6161 39.2328L22.3575 38.671L18.4795 41.816Z" fill="white"/>
<path d="M23.6426 46.6364L26.012 46.8691L27.4001 46.5609L28.0685 46.2346L27.5868 45.7029L26.6414 46.2135L25.3828 46.73L23.6426 46.6364Z" fill="#8EACAF"/>
<defs>
<filter id="filter0_d_6135_21420" x="14.3701" y="24.1912" width="24.7886" height="41.2659" filterUnits="userSpaceOnUse" color-interpolation-filters="sRGB">
<feFlood flood-opacity="0" result="BackgroundImageFix"/>
<feColorMatrix in="SourceAlpha" type="matrix" values="0 0 0 0 0 0 0 0 0 0 0 0 0 0 0 0 0 0 127 0" result="hardAlpha"/>
<feOffset dy="1.81824"/>
<feComposite in2="hardAlpha" operator="out"/>
<feColorMatrix type="matrix" values="0 0 0 0 0 0 0 0 0 0 0 0 0 0 0 0 0 0 0.1 0"/>
<feBlend mode="normal" in2="BackgroundImageFix" result="effect1_dropShadow_6135_21420"/>
<feBlend mode="normal" in="SourceGraphic" in2="effect1_dropShadow_6135_21420" result="shape"/>
</filter>
</defs>
</svg>
