<svg width="184" height="50" viewBox="0 0 184 50" fill="none" xmlns="http://www.w3.org/2000/svg">
<path d="M12.6058 31.534L11.5577 36.4667L3.78201 31.4141L0 27.2781V23.5612L8.82254 19.6032L12.1915 19.2563L12.6058 31.534Z" fill="#1C4B7E"/>
<path d="M50 28.6563V32.4338L46.8789 35.5513L39.0167 38.1891L32.0529 38.6094L31.9497 38.5991L35.6542 33.4524L36.0143 25.3597L31.392 20.9234L29.6378 20.1678L27.6229 19.3002L29.8921 19.4833L40.1565 22.4215L46.4594 25.4203L50 28.6563Z" fill="#1C4B7E"/>
<path d="M50 28.6564L46.4594 25.4203L40.1564 22.4215L29.8921 19.4833L27.6229 19.3002H27.6216L26.6277 19.2203L18.7281 18.5847L14.6324 19.0063L12.1915 19.2564L8.82254 19.6032L0 23.5612L1.72578 20.9195L10.8052 17.1459L13.0821 17.0531L21.1896 16.7256L31.6334 17.8653L37.9569 19.7876L41.2975 20.8035L47.6004 24.8195L50 28.6564Z" fill="#255B8F"/>
<path d="M27.8321 21.862L26.6277 19.2203L18.7268 18.5834L14.6312 19.005L14.1445 31.494L15.1849 32.8542L18.106 30.861L20.308 30.781L25.1795 33.1494L28.391 31.3354L27.8321 21.862ZM18.1072 28.2322C18.1072 29.0818 17.418 29.7703 16.5673 29.7703C15.7167 29.7703 15.0261 29.0818 15.0261 28.2322V26.5136C15.0261 25.664 15.7167 24.9742 16.5673 24.9742C16.9933 24.9742 17.3767 25.147 17.6568 25.4255C17.9343 25.7039 18.1072 26.0894 18.1072 26.5136V28.2322ZM26.3063 28.2322C26.3063 29.0818 25.6158 29.7703 24.7651 29.7703C23.9145 29.7703 23.2252 29.0818 23.2252 28.2322V26.5136C23.2252 25.664 23.9145 24.9742 24.7651 24.9742C25.1911 24.9742 25.5758 25.147 25.8546 25.4255C26.1334 25.7039 26.3063 26.0894 26.3063 26.5136V28.2322Z" fill="#FFE97F"/>
<path d="M15.1862 32.854L25.1795 33.148L28.391 31.3353L27.8321 21.8618L26.6278 19.2201L27.6217 19.3001H27.623L29.6379 20.1677L30.9132 31.5338L27.3713 38.1194L23.002 46.243L21.7886 49.9999L15.1862 44.6043L11.3448 37.4696L11.5578 36.4665L12.6059 31.5338L12.1916 19.2562L14.6325 19.0061L14.1459 31.4939L15.1862 32.854Z" fill="white"/>
<path d="M36.0144 25.3597L35.6542 33.4524L31.9497 38.5991L30.7324 40.2867L28.6917 41.7861L21.7886 50L23.0019 46.2431L27.3712 38.1195L30.9132 31.5339L29.6379 20.1678L31.392 20.9233L36.0144 25.3597Z" fill="#BFC6CD"/>
<path d="M18.1071 26.5123V28.2309C18.1071 29.0805 17.4178 29.7689 16.5672 29.7689C15.7166 29.7689 15.026 29.0805 15.026 28.2309V26.5123C15.026 25.6627 15.7166 24.9729 16.5672 24.9729C16.9932 24.9729 17.3765 25.1457 17.6566 25.4241C17.9341 25.7026 18.1071 26.0881 18.1071 26.5123Z" fill="#151D26"/>
<path d="M26.3063 26.5123V28.2309C26.3063 29.0805 25.6158 29.7689 24.7651 29.7689C23.9145 29.7689 23.2252 29.0805 23.2252 28.2309V26.5123C23.2252 25.6627 23.9145 24.9729 24.7651 24.9729C25.1911 24.9729 25.5757 25.1457 25.8546 25.4241C26.1334 25.7026 26.3063 26.0881 26.3063 26.5123Z" fill="#151D26"/>
<path d="M37.096 5.15445L31.5727 12.5896L31.6334 17.8652L21.1896 16.7255L13.0822 17.053L16.5673 8.63287L26.3063 1.25832L33.9736 0L41.7777 2.09762L42.1972 2.99752L37.096 5.15445Z" fill="#255B8F"/>
<path d="M36.6145 10.7305L37.9569 19.7876L31.6333 17.8653L31.5726 12.5896L37.0959 5.15449L42.1971 2.99756L37.9349 6.2336L36.6145 10.7305Z" fill="#1C4B7E"/>
<path opacity="0.7" d="M12.1915 19.2564L12.247 20.9093L18.6222 20.1679L26.145 20.0828L30.3465 20.9093L32.728 22.2062L31.392 20.9234L27.6229 19.3003L18.7281 18.5847L12.1915 19.2564Z" fill="#848589"/>
<path d="M33.9736 0L27.1453 1.73276L19.5826 8.56841L18.1072 16.8506L13.0822 17.053L16.5673 8.63287L26.3063 1.25832L33.9736 0Z" fill="#4F99CB"/>
<path d="M0 23.5612L8.82254 19.6032L15.0261 17.8653H26.3063C26.3063 17.8653 32.098 17.9156 31.6334 17.8653C31.1687 17.815 21.1896 16.7256 21.1896 16.7256L10.8052 17.1459L1.72708 20.9195L0 23.5612Z" fill="#4F99CB"/>
<path opacity="0.5" d="M12.1915 19.2563L8.82254 19.6032L0 23.5612V27.2781L3.78201 31.4141L11.5577 36.4667L6.91733 29.4621L7.09676 25.8664L12.3232 23.1589L12.1915 19.2563Z" fill="#233B60"/>
<path opacity="0.5" d="M27.6229 19.3002L29.8921 19.4833L40.1565 22.4215L46.4594 25.4203L40.2004 24.9742L36.0143 25.3597L31.392 20.9234L27.6229 19.3002Z" fill="#233B60"/>
<path d="M15.026 26.5122L16.5659 27.3721L15.026 28.2321V26.5122Z" fill="white"/>
<path d="M23.2252 26.5122L24.7651 27.3721L23.2252 28.2321V26.5122Z" fill="white"/>
<path d="M21.9847 35.274C21.9615 35.4597 21.9254 35.6466 21.8776 35.8348C21.3329 36.2332 20.7081 36.5349 20.0356 36.7154L18.6622 36.6419C17.9355 36.4305 17.2721 36.0772 16.7106 35.6066C16.8087 35.4042 16.9081 35.2031 17.01 35.0007C17.3779 34.9839 17.7225 34.9156 18.0349 34.8112C18.408 34.9981 18.8455 35.2044 19.2689 35.2701C19.5903 35.2727 20.1428 35.2289 20.4564 35.1567C20.6513 35.1206 20.8463 35.0742 21.036 35.0097C21.3974 35.1722 21.5407 35.2237 21.9847 35.274Z" fill="#FFE97F"/>
<path d="M13.1273 34.3021L13.7779 35.8853L14.9848 36.9696L17.3766 36.2166L18.2827 34.2157L20.3493 34.3343L22.7411 36.9683L23.5543 37.9197L25.1562 37.765C25.1562 37.765 27.3621 36.6937 27.3621 36.4655C27.3621 36.2373 27.7339 34.6876 27.7339 34.6876L26.8858 34.101L17.4244 32.1426L13.1273 34.3021Z" fill="#BFC6CD"/>
<path d="M17.6477 30.3839L19.1399 30.2562L19.5503 30.5553L20.3971 30.5218L19.9543 30.781L18.6429 30.8261L17.6477 30.3839Z" fill="#BFC6CD"/>
<path d="M21.0684 30.1517L22.8897 30.9266L27.7314 34.6886L24.7652 33.148L21.0684 30.1517Z" fill="#BFC6CD"/>
<path d="M14.5872 32.854L13.1273 34.3019L13.8566 35.6633L14.5859 36.228L16.9571 35.0844L18.0013 33.9035H20.4396L21.2412 34.9001L23.0083 36.8584L25.0361 36.6264L26.7077 35.2649C26.7077 35.2649 26.9168 34.2683 26.882 34.1033C26.8471 33.937 25.0555 33.1493 25.0555 33.1493L21.0657 30.1517L19.9517 30.7809L18.639 30.826L17.6451 30.3838L14.5872 32.854Z" fill="white"/>
<path d="M18.6622 36.6421L20.5339 36.8226L21.6285 36.5815L22.1564 36.3262L21.7756 35.9072L21.0295 36.3082L20.0356 36.7156L18.6622 36.6421Z" fill="#8EACAF"/>
<path d="M75.2271 17.5574H80.3818V37.443H75.2271V35.0962C73.6815 37.0309 71.5107 38.0002 68.711 38.0002C66.0454 38.0002 63.7596 36.9851 61.8573 34.9588C59.9512 32.9286 59 30.4443 59 27.5021C59 24.5599 59.9512 22.0718 61.8573 20.0455C63.7634 18.0153 66.0493 17.004 68.711 17.004C71.5107 17.004 73.6815 17.9733 75.2271 19.9081V17.5574ZM65.7118 31.5357C66.7511 32.5852 68.0705 33.108 69.6698 33.108C71.2691 33.108 72.5923 32.5852 73.647 31.5357C74.6979 30.4901 75.2271 29.143 75.2271 27.4983C75.2271 25.8536 74.7017 24.5103 73.647 23.4609C72.5923 22.4152 71.2691 21.8886 69.6698 21.8886C68.0705 21.8886 66.7511 22.4114 65.7118 23.4609C64.6724 24.5103 64.1546 25.8536 64.1546 27.4983C64.1546 29.143 64.6724 30.4901 65.7118 31.5357Z" fill="white"/>
<path d="M89.2643 20.9764C89.7437 19.7056 90.5376 18.7478 91.6422 18.1143C92.7468 17.477 93.9817 17.1603 95.3394 17.1603V22.8882C93.7669 22.7012 92.3632 23.0218 91.1206 23.8422C89.8818 24.6627 89.2605 26.0289 89.2605 27.9369V37.4428H84.1058V17.5571H89.2605V20.9764H89.2643Z" fill="white"/>
<path d="M106.757 38C103.746 38 101.234 36.9925 99.2208 34.9776C97.2072 32.9627 96.2024 30.4708 96.2024 27.5019C96.2024 24.5329 97.2072 22.041 99.2208 20.0261C101.234 18.0112 103.743 17.0038 106.757 17.0038C108.702 17.0038 110.474 17.4694 112.073 18.3967C113.672 19.324 114.884 20.5718 115.709 22.1364L111.271 24.7199C110.872 23.8995 110.266 23.2469 109.453 22.7699C108.64 22.2929 107.727 22.0525 106.715 22.0525C105.169 22.0525 103.888 22.5638 102.876 23.5827C101.863 24.6054 101.357 25.9106 101.357 27.5019C101.357 29.0665 101.863 30.3601 102.876 31.379C103.888 32.4017 105.165 32.9093 106.715 32.9093C107.754 32.9093 108.679 32.6765 109.492 32.2147C110.305 31.753 110.911 31.1081 111.31 30.2876L115.785 32.833C114.907 34.3976 113.668 35.6492 112.069 36.5918C110.474 37.5306 108.702 38 106.757 38Z" fill="white"/>
<path d="M132.649 17.5571H137.804V37.4428H132.649V35.0959C131.104 37.0307 128.933 38 126.133 38C123.468 38 121.182 36.9849 119.279 34.9585C117.373 32.9284 116.422 30.4441 116.422 27.5019C116.422 24.5597 117.373 22.0716 119.279 20.0452C121.186 18.0151 123.471 17.0038 126.133 17.0038C128.933 17.0038 131.104 17.9731 132.649 19.9078V17.5571ZM123.138 31.5355C124.177 32.5849 125.496 33.1077 127.096 33.1077C128.695 33.1077 130.018 32.5849 131.073 31.5355C132.124 30.4899 132.653 29.1428 132.653 27.4981C132.653 25.8533 132.128 24.51 131.073 23.4606C130.018 22.415 128.695 21.8884 127.096 21.8884C125.496 21.8884 124.177 22.4112 123.138 23.4606C122.098 24.51 121.581 25.8533 121.581 27.4981C121.577 29.1428 122.098 30.4899 123.138 31.5355Z" fill="white"/>
<path d="M152.643 17C154.829 17 156.631 17.7289 158.058 19.1866C159.485 20.6444 160.198 22.6593 160.198 25.2313V37.4428H155.044V25.8686C155.044 24.5444 154.683 23.5294 153.966 22.8272C153.245 22.125 152.286 21.7739 151.089 21.7739C149.758 21.7739 148.692 22.1861 147.891 23.0065C147.093 23.827 146.69 25.0634 146.69 26.7043V37.4428H141.532V17.5572H146.69V19.7858C147.941 17.9273 149.927 17 152.643 17Z" fill="white"/>
<path d="M178.845 17.5571H184V37.4428H178.845V35.0959C177.3 37.0307 175.129 38 172.329 38C169.664 38 167.378 36.9849 165.476 34.9585C163.569 32.9284 162.618 30.4441 162.618 27.5019C162.618 24.5597 163.569 22.0716 165.476 20.0452C167.382 18.0151 169.668 17.0038 172.329 17.0038C175.129 17.0038 177.3 17.9731 178.845 19.9078V17.5571ZM169.334 31.5355C170.373 32.5849 171.693 33.1077 173.292 33.1077C174.891 33.1077 176.214 32.5849 177.269 31.5355C178.32 30.4899 178.849 29.1428 178.849 27.4981C178.849 25.8533 178.324 24.51 177.269 23.4606C176.214 22.415 174.891 21.8884 173.292 21.8884C171.693 21.8884 170.373 22.4112 169.334 23.4606C168.295 24.51 167.777 25.8533 167.777 27.4981C167.773 29.1428 168.295 30.4899 169.334 31.5355Z" fill="white"/>
</svg>
