<svg width="256" height="72" viewBox="0 0 256 72" fill="none" xmlns="http://www.w3.org/2000/svg">
<mask id="mask0_1_8090" style="mask-type:alpha" maskUnits="userSpaceOnUse" x="10" y="5" width="62" height="62">
<path d="M40.8893 66.7738C57.7769 66.7738 71.4671 53.0837 71.4671 36.196C71.4671 19.3084 57.7769 5.61825 40.8893 5.61825C24.0017 5.61825 10.3115 19.3084 10.3115 36.196C10.3115 53.0837 24.0017 66.7738 40.8893 66.7738Z" fill="#D9D9D9"/>
</mask>
<g mask="url(#mask0_1_8090)">
<path d="M40.8131 66.7738C57.7008 66.7738 71.3909 53.0837 71.3909 36.196C71.3909 19.3084 57.7008 5.61825 40.8131 5.61825C23.9255 5.61825 10.2354 19.3084 10.2354 36.196C10.2354 53.0837 23.9255 66.7738 40.8131 66.7738Z" fill="#6B46C1"/>
<mask id="mask1_1_8090" style="mask-type:alpha" maskUnits="userSpaceOnUse" x="10" y="5" width="62" height="62">
<path d="M32.9498 65.7022C49.262 70.073 66.029 60.3926 70.3998 44.0804C74.7706 27.7682 65.0903 11.0013 48.7781 6.63045C32.4658 2.25961 15.6989 11.94 11.3281 28.2522C6.95723 44.5644 16.6376 61.3313 32.9498 65.7022Z" fill="#6B46C1"/>
</mask>
<g mask="url(#mask1_1_8090)">
<path d="M24.9589 73.4117L25.1168 72.8211C27.86 62.5623 26.5599 67.4245 29.2906 57.1621C29.4918 56.4098 29.6619 55.6492 29.7744 54.8798C30.0991 52.6946 30.0037 50.5367 29.2633 48.4254C29.0609 47.8377 28.8742 47.2414 28.664 46.6583C26.7993 41.4064 24.9269 36.159 23.0561 30.9053C23.0144 30.7875 22.985 30.673 22.9512 30.5506C23.0656 30.4214 23.1705 30.303 23.2738 30.1907C25.4932 27.8413 27.7143 25.4856 29.94 23.1377C30.6034 22.4393 31.3762 21.6524 32.17 20.848C34.2358 18.7546 37.3762 17.9579 40.1513 18.9358C42.6451 19.8186 45.1404 20.6951 47.6322 21.5842C50.2576 22.5223 52.8752 23.465 55.4956 24.3952C55.7641 24.4872 55.891 24.6347 55.9504 24.9105C56.2043 26.1781 56.4798 27.4382 56.7472 28.7029C56.7689 28.822 56.7842 28.9393 56.8051 29.0849C56.6395 29.107 56.5047 29.1376 56.3689 29.1477C53.5031 29.3578 50.6309 29.5663 47.768 29.7905C47.3666 29.8227 46.9982 29.757 46.6291 29.618C46.0307 29.3907 45.4274 29.182 44.8322 28.9688C43.1479 28.3701 41.4654 27.7651 39.7755 27.1646C38.5783 26.7337 37.2407 27.1177 36.43 28.0978C35.9596 28.6667 35.4899 29.235 35.0201 29.8035C33.2814 31.9072 33.1134 34.8983 34.6038 37.1874C34.7896 37.4729 34.9754 37.7584 35.1611 38.0435C37.086 41.0007 40.7831 42.259 44.1061 41.0828C46.0286 40.4027 47.9465 39.7235 49.8675 39.0437C48.7184 37.2571 47.4252 36.7667 45.6485 34.4097C48.5822 34.2445 54.4834 33.5627 57.4046 33.3941C57.9884 36.0164 58.557 37.4718 59.1276 40.0443C59.0483 40.1161 58.9989 40.1762 58.9388 40.2267C54.8979 43.7865 50.7927 47.2624 46.5499 50.5811C45.6062 51.3207 44.8169 52.1815 44.1484 53.1618C41.8231 56.5555 40.1118 60.2409 39.0075 64.1961C37.4515 70.0155 37.4409 70.0062 35.8828 75.8316C35.8412 75.9874 35.8003 76.1161 35.7548 76.3106L24.9589 73.4117Z" fill="white"/>
</g>
</g>
<path d="M235.454 48.2087C232.831 48.2087 230.54 47.6811 228.579 46.6258C226.62 45.5403 225.097 44.0779 224.012 42.2386C222.956 40.3993 222.429 38.2734 222.429 35.8614C222.429 34.0221 222.73 32.3336 223.333 30.7958C223.936 29.2581 224.78 27.9314 225.866 26.8158C226.951 25.6701 228.233 24.7956 229.71 24.1926C231.218 23.5594 232.846 23.2428 234.595 23.2428C236.283 23.2428 237.821 23.5443 239.208 24.1473C240.595 24.7504 241.801 25.5947 242.826 26.6801C243.852 27.7656 244.636 29.047 245.178 30.5245C245.721 32.0019 245.962 33.6 245.902 35.3187L245.857 37.2633H226.68L225.64 33.2382H240.203L239.434 34.0975V33.1477C239.374 32.3638 239.133 31.6703 238.711 31.0672C238.289 30.4642 237.731 29.9968 237.037 29.6652C236.344 29.3033 235.56 29.1224 234.685 29.1224C233.449 29.1224 232.394 29.3636 231.52 29.8461C230.675 30.3285 230.027 31.0371 229.575 31.9718C229.153 32.9065 228.941 34.0372 228.941 35.3639C228.941 36.7207 229.228 37.9118 229.801 38.9369C230.374 39.962 231.203 40.7609 232.288 41.3341C233.404 41.8766 234.716 42.1479 236.223 42.1479C237.248 42.1479 238.168 41.9972 238.982 41.6957C239.826 41.3643 240.716 40.8213 241.65 40.0676L244.952 44.6809C244.048 45.4948 243.068 46.1582 242.012 46.6709C240.957 47.1833 239.872 47.5602 238.756 47.8016C237.67 48.0729 236.57 48.2087 235.454 48.2087Z" fill="white"/>
<path d="M212.925 47.7543V14.2858H219.845V47.7543H212.925Z" fill="white"/>
<path d="M185.052 57.7057V23.7849H191.655L191.926 29.167L190.615 28.76C190.826 27.765 191.338 26.8604 192.153 26.0463C192.997 25.2322 194.037 24.584 195.273 24.1015C196.51 23.5889 197.821 23.3327 199.208 23.3327C201.258 23.3327 203.083 23.8603 204.681 24.9156C206.309 25.971 207.575 27.4333 208.48 29.3027C209.414 31.1722 209.882 33.3129 209.882 35.7251C209.882 38.1374 209.414 40.2782 208.48 42.1473C207.575 44.0168 206.309 45.4942 204.681 46.5797C203.052 47.635 201.213 48.1626 199.163 48.1626C197.776 48.1626 196.464 47.9066 195.228 47.3939C193.992 46.8812 192.937 46.1878 192.062 45.3135C191.218 44.4389 190.675 43.4892 190.434 42.4641L192.017 41.8309V57.7057H185.052ZM197.489 42.2831C198.635 42.2831 199.615 42.0118 200.429 41.4689C201.273 40.9263 201.937 40.1726 202.419 39.2076C202.902 38.2127 203.143 37.0518 203.143 35.7251C203.143 34.4286 202.902 33.2979 202.419 32.333C201.967 31.338 201.319 30.5691 200.474 30.0264C199.63 29.4837 198.635 29.2123 197.489 29.2123C196.343 29.2123 195.349 29.4837 194.504 30.0264C193.66 30.5691 192.997 31.338 192.514 32.333C192.032 33.2979 191.791 34.4286 191.791 35.7251C191.791 37.0518 192.032 38.2127 192.514 39.2076C192.997 40.1726 193.66 40.9263 194.504 41.4689C195.349 42.0118 196.343 42.2831 197.489 42.2831Z" fill="white"/>
<path d="M157.225 57.7057V23.7849H163.828L164.099 29.167L162.788 28.76C162.999 27.765 163.512 26.8604 164.325 26.0463C165.17 25.2322 166.21 24.584 167.446 24.1015C168.682 23.5889 169.994 23.3327 171.381 23.3327C173.431 23.3327 175.256 23.8603 176.854 24.9156C178.482 25.971 179.748 27.4333 180.653 29.3027C181.587 31.1722 182.055 33.3129 182.055 35.7251C182.055 38.1374 181.587 40.2782 180.653 42.1473C179.748 44.0168 178.482 45.4942 176.854 46.5797C175.225 47.635 173.386 48.1626 171.336 48.1626C169.949 48.1626 168.637 47.9066 167.401 47.3939C166.165 46.8812 165.109 46.1878 164.235 45.3135C163.391 44.4389 162.848 43.4892 162.607 42.4641L164.19 41.8309V57.7057H157.225ZM169.662 42.2831C170.808 42.2831 171.788 42.0118 172.602 41.4689C173.446 40.9263 174.11 40.1726 174.592 39.2076C175.075 38.2127 175.316 37.0518 175.316 35.7251C175.316 34.4286 175.075 33.2979 174.592 32.333C174.14 31.338 173.492 30.5691 172.648 30.0264C171.803 29.4837 170.808 29.2123 169.662 29.2123C168.517 29.2123 167.521 29.4837 166.677 30.0264C165.833 30.5691 165.17 31.338 164.687 32.333C164.205 33.2979 163.964 34.4286 163.964 35.7251C163.964 37.0518 164.205 38.2127 164.687 39.2076C165.17 40.1726 165.833 40.9263 166.677 41.4689C167.521 42.0118 168.517 42.2831 169.662 42.2831Z" fill="white"/>
<path d="M138.218 48.161C136.228 48.161 134.434 47.6333 132.836 46.578C131.268 45.4925 130.016 44.0152 129.082 42.1457C128.147 40.2463 127.68 38.1055 127.68 35.7234C127.68 33.2811 128.147 31.1253 129.082 29.2558C130.016 27.3864 131.298 25.9241 132.926 24.8688C134.554 23.8134 136.409 23.2858 138.489 23.2858C139.635 23.2858 140.69 23.4516 141.655 23.7833C142.62 24.1149 143.464 24.5823 144.188 25.1853C144.942 25.7582 145.56 26.4366 146.042 27.2206C146.555 28.0045 146.932 28.8337 147.173 29.7082L145.726 29.5272V23.7833H152.6V47.7542H145.635V41.965L147.173 41.9195C146.932 42.764 146.54 43.5629 145.997 44.3167C145.454 45.0705 144.791 45.7339 144.007 46.3067C143.223 46.8795 142.334 47.3318 141.339 47.6635C140.374 47.9953 139.333 48.161 138.218 48.161ZM140.163 42.2815C141.308 42.2815 142.303 42.0102 143.148 41.4673C143.992 40.9247 144.64 40.1709 145.093 39.2059C145.575 38.2111 145.816 37.0502 145.816 35.7234C145.816 34.4269 145.575 33.2811 145.093 32.2861C144.64 31.2911 143.992 30.5222 143.148 29.9795C142.303 29.4368 141.308 29.1654 140.163 29.1654C139.047 29.1654 138.067 29.4368 137.223 29.9795C136.379 30.5222 135.715 31.2911 135.233 32.2861C134.78 33.2811 134.554 34.4269 134.554 35.7234C134.554 37.0502 134.78 38.2111 135.233 39.2059C135.715 40.1709 136.379 40.9247 137.223 41.4673C138.067 42.0102 139.047 42.2815 140.163 42.2815Z" fill="white"/>
<path d="M111.905 47.7542V23.7833H118.508L118.78 31.5625L117.559 30.0247C117.921 28.7584 118.508 27.6126 119.323 26.5874C120.137 25.5622 121.101 24.7632 122.217 24.1903C123.333 23.5873 124.509 23.2858 125.745 23.2858C126.287 23.2858 126.785 23.331 127.237 23.4215C127.72 23.4818 128.142 23.5722 128.504 23.6928L126.649 31.3363C126.318 31.1554 125.88 31.0046 125.338 30.884C124.795 30.7333 124.222 30.6579 123.619 30.6579C122.956 30.6579 122.323 30.7785 121.72 31.0198C121.147 31.261 120.649 31.6077 120.227 32.06C119.805 32.4821 119.473 32.9947 119.232 33.5977C118.991 34.2008 118.87 34.8641 118.87 35.5878V47.7542H111.905Z" fill="white"/>
<path d="M94.4925 58.1563C92.5629 58.1563 90.6482 57.8701 88.7485 57.297C86.8491 56.7242 85.296 55.9857 84.09 55.0811L86.5323 50.1965C87.1655 50.6488 87.8589 51.0257 88.6126 51.3272C89.3966 51.6586 90.2109 51.9149 91.0549 52.0959C91.8994 52.2769 92.7737 52.3672 93.6782 52.3672C95.216 52.3672 96.4825 52.1261 97.4773 51.6436C98.4725 51.1914 99.211 50.498 99.6935 49.5633C100.176 48.6285 100.417 47.4527 100.417 46.0354V41.965L101.684 42.1912C101.503 43.186 100.99 44.0906 100.146 44.9048C99.3319 45.7186 98.3065 46.3821 97.0702 46.8948C95.8642 47.3773 94.5981 47.6184 93.2711 47.6184C91.0702 47.6184 89.1104 47.121 87.3917 46.1258C85.7031 45.1007 84.3613 43.6987 83.3664 41.9195C82.4014 40.1105 81.9189 38.0148 81.9189 35.633C81.9189 33.2208 82.4014 31.0951 83.3664 29.2558C84.3314 27.3864 85.658 25.9241 87.3465 24.8688C89.035 23.8134 90.9497 23.2858 93.0905 23.2858C93.995 23.2858 94.8544 23.3913 95.6683 23.6024C96.5127 23.7833 97.2814 24.0546 97.9751 24.4165C98.6987 24.7783 99.3319 25.2004 99.8745 25.6828C100.447 26.1351 100.915 26.6326 101.276 27.1754C101.638 27.7181 101.865 28.2759 101.955 28.8488L100.553 29.2106L100.779 23.7833H107.382V45.8545C107.382 47.8143 107.081 49.548 106.478 51.0555C105.905 52.5933 105.061 53.89 103.945 54.9453C102.83 56.0006 101.473 56.7995 99.8745 57.3425C98.3065 57.885 96.5127 58.1563 94.4925 58.1563ZM94.7186 42.1912C95.8944 42.1912 96.9348 41.9195 97.8393 41.377C98.7438 40.834 99.4372 40.0802 99.9197 39.1156C100.402 38.1506 100.644 37.005 100.644 35.6782C100.644 34.3817 100.387 33.251 99.8745 32.2861C99.392 31.2911 98.6987 30.5222 97.7942 29.9795C96.9195 29.4368 95.8944 29.1654 94.7186 29.1654C93.5125 29.1654 92.4722 29.4368 91.5979 29.9795C90.7236 30.5222 90.0299 31.2911 89.5175 32.2861C89.035 33.2811 88.7936 34.4118 88.7936 35.6782C88.7936 36.9748 89.035 38.1204 89.5175 39.1156C90.0299 40.0802 90.7236 40.834 91.5979 41.377C92.4722 41.9195 93.5125 42.1912 94.7186 42.1912Z" fill="white"/>
</svg>
