<svg width="938" height="536" viewBox="0 0 938 536" fill="none" xmlns="http://www.w3.org/2000/svg">
<g opacity="0.5">
<path d="M673.299 212.119V464.932L755 494.469V183.627L673.299 212.119Z" fill="url(#paint0_linear_6135_20924)"/>
<path d="M673.299 212.119V464.932L755 494.469V183.627L673.299 212.119Z" fill="url(#paint1_linear_6135_20924)"/>
<path d="M575.994 188.897V488.187L630.396 514.803V163.326L575.994 188.897Z" fill="url(#paint2_linear_6135_20924)"/>
<path d="M575.994 188.897V488.187L630.396 514.803V163.326L575.994 188.897Z" fill="url(#paint3_linear_6135_20924)"/>
<path d="M489.956 168.571V508.495L533.058 535.111V143L489.956 168.571Z" fill="url(#paint4_linear_6135_20924)"/>
<path d="M489.956 168.571V508.495L533.058 535.111V143L489.956 168.571Z" fill="url(#paint5_linear_6135_20924)"/>
<path d="M182 183.627V494.469L263.701 464.932V212.119L182 183.627Z" fill="url(#paint6_linear_6135_20924)"/>
<path d="M182 183.627V494.469L263.701 464.932V212.119L182 183.627Z" fill="url(#paint7_linear_6135_20924)"/>
<path d="M306.607 163.326V514.803L360.981 488.187V188.897L306.607 163.326Z" fill="url(#paint8_linear_6135_20924)"/>
<path d="M306.607 163.326V514.803L360.981 488.187V188.897L306.607 163.326Z" fill="url(#paint9_linear_6135_20924)"/>
<path d="M403.973 143V535.111L447.075 508.495V168.571L403.973 143Z" fill="url(#paint10_linear_6135_20924)"/>
<path d="M403.973 143V535.111L447.075 508.495V168.571L403.973 143Z" fill="url(#paint11_linear_6135_20924)"/>
</g>
<defs>
<linearGradient id="paint0_linear_6135_20924" x1="538.792" y1="419.463" x2="650.158" y2="141.587" gradientUnits="userSpaceOnUse">
<stop stop-color="#A100FF"/>
<stop offset="1" stop-color="#00E9B2"/>
</linearGradient>
<linearGradient id="paint1_linear_6135_20924" x1="714.233" y1="481.248" x2="714.233" y2="198.158" gradientUnits="userSpaceOnUse">
<stop offset="0.103152" stop-color="#090B0B" stop-opacity="0.88"/>
<stop offset="1" stop-opacity="0"/>
</linearGradient>
<linearGradient id="paint2_linear_6135_20924" x1="486.43" y1="429.991" x2="656.049" y2="180.761" gradientUnits="userSpaceOnUse">
<stop stop-color="#A100FF"/>
<stop offset="1" stop-color="#00E9B2"/>
</linearGradient>
<linearGradient id="paint3_linear_6135_20924" x1="603.25" y1="499.854" x2="603.25" y2="179.757" gradientUnits="userSpaceOnUse">
<stop offset="0.103152" stop-color="#090B0B" stop-opacity="0.88"/>
<stop offset="1" stop-opacity="0"/>
</linearGradient>
<linearGradient id="paint4_linear_6135_20924" x1="418.995" y1="440.494" x2="622.224" y2="228.421" gradientUnits="userSpaceOnUse">
<stop stop-color="#A100FF"/>
<stop offset="1" stop-color="#00E9B2"/>
</linearGradient>
<linearGradient id="paint5_linear_6135_20924" x1="511.551" y1="518.434" x2="511.551" y2="161.33" gradientUnits="userSpaceOnUse">
<stop offset="0.103152" stop-color="#090B0B" stop-opacity="0.88"/>
<stop offset="1" stop-opacity="0"/>
</linearGradient>
<linearGradient id="paint6_linear_6135_20924" x1="47.4927" y1="419.463" x2="158.858" y2="141.587" gradientUnits="userSpaceOnUse">
<stop stop-color="#A100FF"/>
<stop offset="1" stop-color="#00E9B2"/>
</linearGradient>
<linearGradient id="paint7_linear_6135_20924" x1="222.934" y1="481.248" x2="222.934" y2="198.158" gradientUnits="userSpaceOnUse">
<stop offset="0.103152" stop-color="#090B0B" stop-opacity="0.88"/>
<stop offset="1" stop-opacity="0"/>
</linearGradient>
<linearGradient id="paint8_linear_6135_20924" x1="217.089" y1="429.991" x2="386.74" y2="180.842" gradientUnits="userSpaceOnUse">
<stop stop-color="#A100FF"/>
<stop offset="1" stop-color="#00E9B2"/>
</linearGradient>
<linearGradient id="paint9_linear_6135_20924" x1="333.849" y1="499.854" x2="333.849" y2="179.757" gradientUnits="userSpaceOnUse">
<stop offset="0.103152" stop-color="#090B0B" stop-opacity="0.88"/>
<stop offset="1" stop-opacity="0"/>
</linearGradient>
<linearGradient id="paint10_linear_6135_20924" x1="333.013" y1="440.494" x2="536.242" y2="228.42" gradientUnits="userSpaceOnUse">
<stop stop-color="#A100FF"/>
<stop offset="1" stop-color="#00E9B2"/>
</linearGradient>
<linearGradient id="paint11_linear_6135_20924" x1="425.568" y1="518.434" x2="425.568" y2="161.33" gradientUnits="userSpaceOnUse">
<stop offset="0.103152" stop-color="#090B0B" stop-opacity="0.88"/>
<stop offset="1" stop-opacity="0"/>
</linearGradient>
</defs>
</svg>
