<svg width="256" height="80" viewBox="0 0 256 80" fill="none" xmlns="http://www.w3.org/2000/svg">
<g clip-path="url(#clip0_1_8045)">
<path d="M7.60712 62.2748C10.9349 66.9038 15.2036 70.7768 20.1333 73.6403C25.063 76.5035 30.5422 78.2926 36.2118 78.89C33.2949 74.5006 29.0549 70.4624 23.7617 67.388C18.4685 64.3135 12.8629 62.634 7.60712 62.2748Z" fill="url(#paint0_linear_1_8045)"/>
<path d="M30.876 55.1361C20.6782 49.2114 9.6406 47.7015 1.74286 50.3688C2.50529 52.8887 3.5108 55.3286 4.74524 57.654C11.607 57.495 19.0989 59.3586 26.0701 63.4076C33.0414 67.4566 38.3734 73.0448 41.6361 79.0856C44.269 79.0049 46.8881 78.6694 49.4564 78.0843C47.8596 69.9036 41.0714 61.062 30.876 55.1361Z" fill="url(#paint1_linear_1_8045)"/>
<path d="M79.472 31.0932C78.1755 25.8193 75.8294 20.8609 72.574 16.5138C69.3186 12.1668 65.2206 8.52029 60.5248 5.79211C55.8289 3.06394 50.6313 1.31003 45.2428 0.635093C39.854 -0.039846 34.3845 0.378035 29.1608 1.86378C37.8875 2.93176 47.5741 6.2078 57.0737 11.7266C66.5735 17.2454 74.2242 24.0364 79.472 31.0932Z" fill="url(#paint2_linear_1_8045)"/>
<path d="M66.7747 50.4415C62.3077 43.0231 54.6558 35.9196 45.2293 30.4437C35.8031 24.9675 25.8442 21.8396 17.1949 21.6327C9.58549 21.4525 3.87445 23.6645 1.53022 27.7003C1.51687 27.7242 1.49818 27.7468 1.4835 27.771C1.27257 28.5279 1.09101 29.286 0.925476 30.0471C4.19885 28.7548 7.99152 28.0353 12.2087 27.9551C21.5869 27.7791 32.0825 30.7787 41.7679 36.4055C51.4531 42.0326 59.264 49.6673 63.7548 57.8987C65.7681 61.6073 67.0243 65.2585 67.5222 68.7467C68.1017 68.2288 68.6703 67.6934 69.2217 67.1369C69.2365 67.1115 69.2458 67.0847 69.2603 67.0581C71.6047 63.0185 70.6981 56.9628 66.7747 50.4415Z" fill="url(#paint3_linear_1_8045)"/>
<path d="M38.0573 42.7837C23.6221 34.3975 7.67049 33.0838 -0.000305176 38.9363C0.0147618 40.7682 0.154813 42.5969 0.418876 44.4098C2.67536 43.7257 5.00098 43.295 7.35275 43.1256C15.9246 42.4807 25.375 44.8691 33.951 49.8537C42.5267 54.8386 49.2871 61.8687 52.9742 69.6287C53.9935 71.7548 54.7709 73.9884 55.2918 76.2877C56.9978 75.6189 58.6567 74.8352 60.2567 73.9421C61.5409 64.3783 52.4964 51.1714 38.0573 42.7837Z" fill="url(#paint4_linear_1_8045)"/>
<path d="M74.1994 38.0227C69.682 30.6123 61.9631 23.4888 52.4699 17.9767C42.977 12.4646 32.9792 9.28731 24.302 9.03232C17.6872 8.84142 12.5635 10.4447 9.90692 13.4738C20.9378 11.6048 35.4878 14.746 49.5904 22.9388C63.6933 31.1317 73.6335 42.2172 77.4703 52.7248C78.7853 48.9187 77.6411 43.6737 74.1994 38.0227Z" fill="url(#paint5_linear_1_8045)"/>
<path d="M114.866 24.7134H121.601V47.1819C121.601 49.2589 121.134 51.063 120.2 52.5945C119.277 54.1261 117.992 55.3062 116.345 56.1347C114.699 56.9635 112.784 57.3778 110.602 57.3778C108.662 57.3778 106.9 57.0369 105.316 56.355C103.742 55.6626 102.494 54.6137 101.571 53.2082C100.648 51.7921 100.191 50.0141 100.202 47.8743H106.984C107.004 48.724 107.178 49.4529 107.503 50.0614C107.838 50.6593 108.295 51.1208 108.872 51.446C109.459 51.7606 110.151 51.9179 110.949 51.9179C111.788 51.9179 112.496 51.7397 113.073 51.383C113.66 51.016 114.106 50.4808 114.41 49.7781C114.714 49.0753 114.866 48.2098 114.866 47.1819V24.7134ZM142.606 46.647V32.7693H149.309V56.9372H142.873V52.5473H142.621C142.076 53.9634 141.169 55.1016 139.9 55.9617C138.641 56.8217 137.104 57.2518 135.29 57.2518C133.674 57.2518 132.253 56.8848 131.025 56.1505C129.798 55.4162 128.838 54.3725 128.146 53.0194C127.464 51.6663 127.118 50.0456 127.108 48.1574V32.7693H133.81V46.9616C133.821 48.3883 134.204 49.5159 134.959 50.3445C135.714 51.1733 136.727 51.5875 137.996 51.5875C138.803 51.5875 139.559 51.4039 140.261 51.0369C140.964 50.6593 141.531 50.1032 141.961 49.3689C142.401 48.6347 142.616 47.7273 142.606 46.647ZM154.67 66.0001V32.7693H161.278V36.8289H161.578C161.871 36.1785 162.296 35.5176 162.852 34.8464C163.418 34.1645 164.153 33.5981 165.055 33.1469C165.967 32.6854 167.1 32.4547 168.453 32.4547C170.216 32.4547 171.841 32.9163 173.331 33.8393C174.82 34.7518 176.011 36.1313 176.903 37.9774C177.794 39.813 178.24 42.1155 178.24 44.8848C178.24 47.5806 177.805 49.8568 176.934 51.7133C176.074 53.5595 174.899 54.9598 173.41 55.9144C171.931 56.8584 170.273 57.3305 168.438 57.3305C167.137 57.3305 166.03 57.1154 165.118 56.6854C164.216 56.2553 163.476 55.7153 162.899 55.0647C162.322 54.404 161.882 53.7379 161.578 53.0667H161.373V66.0001H154.67ZM161.231 44.8533C161.231 46.2903 161.431 47.5437 161.829 48.6137C162.228 49.6838 162.805 50.5175 163.56 51.1154C164.315 51.703 165.233 51.9966 166.314 51.9966C167.404 51.9966 168.328 51.6976 169.083 51.0999C169.838 50.4914 170.41 49.6523 170.798 48.5822C171.196 47.5019 171.396 46.2588 171.396 44.8533C171.396 43.4581 171.202 42.231 170.813 41.1715C170.425 40.1121 169.854 39.2833 169.099 38.6854C168.343 38.0875 167.415 37.7886 166.314 37.7886C165.223 37.7886 164.3 38.0771 163.544 38.6539C162.799 39.2309 162.228 40.0491 161.829 41.1085C161.431 42.168 161.231 43.4162 161.231 44.8533ZM182.709 56.9372V32.7693H189.411V56.9372H182.709ZM186.076 29.654C185.079 29.654 184.224 29.3237 183.511 28.6627C182.808 27.9915 182.457 27.189 182.457 26.2553C182.457 25.3323 182.808 24.5403 183.511 23.8795C184.224 23.2082 185.079 22.8725 186.076 22.8725C187.072 22.8725 187.922 23.2082 188.625 23.8795C189.338 24.5403 189.694 25.3323 189.694 26.2553C189.694 27.189 189.338 27.9915 188.625 28.6627C187.922 29.3237 187.072 29.654 186.076 29.654ZM207.636 32.7693V37.8044H193.081V32.7693H207.636ZM196.386 26.979H203.088V49.5107C203.088 50.1296 203.183 50.612 203.371 50.9581C203.56 51.2939 203.823 51.5299 204.158 51.6663C204.505 51.8027 204.903 51.8709 205.354 51.8709C205.669 51.8709 205.983 51.8445 206.298 51.7921C206.613 51.7291 206.854 51.6821 207.022 51.6505L208.076 56.6384C207.74 56.7432 207.268 56.8638 206.66 57.0002C206.052 57.1469 205.312 57.2363 204.442 57.2675C202.826 57.3305 201.41 57.1154 200.193 56.6226C198.987 56.1296 198.048 55.3638 197.377 54.3253C196.705 53.2867 196.375 51.9757 196.386 50.3917V26.979ZM222.756 57.4093C220.27 57.4093 218.13 56.9057 216.337 55.8987C214.553 54.8813 213.179 53.4443 212.214 51.5875C211.249 49.7205 210.767 47.5125 210.767 44.9635C210.767 42.4774 211.249 40.2955 212.214 38.4181C213.179 36.5404 214.538 35.077 216.289 34.0281C218.052 32.979 220.118 32.4547 222.489 32.4547C224.083 32.4547 225.567 32.7117 226.941 33.2257C228.326 33.7291 229.532 34.4897 230.56 35.507C231.599 36.5246 232.407 37.8044 232.984 39.3463C233.56 40.8779 233.849 42.6713 233.849 44.7275V46.5682H213.441V42.4144H227.539C227.539 41.4494 227.33 40.5945 226.91 39.8497C226.491 39.1051 225.908 38.5229 225.164 38.1032C224.429 37.6732 223.574 37.4581 222.599 37.4581C221.581 37.4581 220.679 37.6941 219.893 38.1662C219.116 38.6278 218.508 39.2518 218.067 40.0385C217.627 40.8149 217.401 41.6801 217.391 42.6347V46.584C217.391 47.7798 217.611 48.8131 218.052 49.6838C218.503 50.5544 219.137 51.2257 219.955 51.6978C220.774 52.1697 221.744 52.4057 222.866 52.4057C223.611 52.4057 224.293 52.3009 224.912 52.0912C225.531 51.8812 226.06 51.5666 226.501 51.1469C226.941 50.7275 227.277 50.2135 227.508 49.605L233.707 50.0141C233.393 51.5036 232.748 52.8043 231.772 53.9161C230.807 55.0177 229.559 55.8777 228.027 56.4966C226.506 57.1051 224.749 57.4093 222.756 57.4093ZM238.223 56.9372V32.7693H244.721V36.9862H244.973C245.414 35.4861 246.153 34.3533 247.193 33.5875C248.229 32.8114 249.425 32.4232 250.779 32.4232C251.114 32.4232 251.476 32.4441 251.865 32.4862C252.253 32.5281 252.593 32.5857 252.889 32.6593V38.6069C252.573 38.5123 252.138 38.4284 251.581 38.355C251.025 38.2817 250.516 38.245 250.055 38.245C249.068 38.245 248.187 38.4599 247.412 38.8899C246.646 39.3096 246.038 39.8969 245.587 40.6521C245.146 41.4076 244.926 42.278 244.926 43.2641V56.9372H238.223Z" fill="white"/>
</g>
<defs>
<linearGradient id="paint0_linear_1_8045" x1="52.9222" y1="16.3263" x2="16.4094" y2="79.0955" gradientUnits="userSpaceOnUse">
<stop offset="0.0001" stop-color="#A4D756"/>
<stop offset="1" stop-color="#00B6E7"/>
</linearGradient>
<linearGradient id="paint1_linear_1_8045" x1="52.924" y1="16.3164" x2="16.4112" y2="79.0856" gradientUnits="userSpaceOnUse">
<stop offset="0.0001" stop-color="#A4D756"/>
<stop offset="1" stop-color="#00B6E7"/>
</linearGradient>
<linearGradient id="paint2_linear_1_8045" x1="52.9238" y1="16.3217" x2="16.411" y2="79.0909" gradientUnits="userSpaceOnUse">
<stop offset="0.0001" stop-color="#A4D756"/>
<stop offset="1" stop-color="#00B6E7"/>
</linearGradient>
<linearGradient id="paint3_linear_1_8045" x1="52.9233" y1="16.3287" x2="16.4105" y2="79.098" gradientUnits="userSpaceOnUse">
<stop offset="0.0001" stop-color="#A4D756"/>
<stop offset="1" stop-color="#00B6E7"/>
</linearGradient>
<linearGradient id="paint4_linear_1_8045" x1="52.9228" y1="16.3259" x2="16.41" y2="79.0951" gradientUnits="userSpaceOnUse">
<stop offset="0.0001" stop-color="#A4D756"/>
<stop offset="1" stop-color="#00B6E7"/>
</linearGradient>
<linearGradient id="paint5_linear_1_8045" x1="52.9234" y1="16.3265" x2="16.4106" y2="79.0957" gradientUnits="userSpaceOnUse">
<stop offset="0.0001" stop-color="#A4D756"/>
<stop offset="1" stop-color="#00B6E7"/>
</linearGradient>
<clipPath id="clip0_1_8045">
<rect width="256" height="78.7692" fill="white" transform="translate(-0.000305176 0.323822)"/>
</clipPath>
</defs>
</svg>
