<svg width="42" height="42" viewBox="0 0 42 42" fill="none" xmlns="http://www.w3.org/2000/svg">
<path d="M0.951666 0.00115405C0.410544 0.052152 -0.00223815 0.507624 0.000105453 1.05113V8.40092C-0.00524984 8.77958 0.193699 9.13179 0.520771 9.32268C0.847842 9.51357 1.25236 9.51357 1.57943 9.32268C1.90651 9.13179 2.10546 8.77958 2.1001 8.40092V3.57762L8.12118 9.59855C8.59033 9.07625 9.09154 8.59085 9.61414 8.12202L3.59307 2.1011H8.40008C8.77875 2.10645 9.13097 1.90751 9.32186 1.58044C9.51276 1.25338 9.51276 0.84887 9.32186 0.521806C9.13097 0.194743 8.77875 -0.00420111 8.40008 0.00115405H1.0501C1.01731 -0.000384684 0.98446 -0.000384684 0.951666 0.00115405ZM9.61414 8.12202L19.6383 18.146C20.0417 18.5296 20.0462 19.2595 19.6547 19.6553C19.2633 20.0511 18.5498 20.038 18.1618 19.6389L8.12118 9.59855C5.03152 13.0382 3.1501 17.5881 3.1501 22.5755C3.1501 33.3034 11.8469 42 22.575 42C33.3032 42 42 33.3034 42 22.5755C42 11.8477 33.3032 3.15107 22.575 3.15107C17.5919 3.15107 13.0528 5.03728 9.61414 8.12202Z" fill="#FF4949"/>
</svg>
