<svg width="256" height="44" viewBox="0 0 256 44" fill="none" xmlns="http://www.w3.org/2000/svg">
<g clip-path="url(#clip0_6135_21397)">
<mask id="mask0_6135_21397" style="mask-type:luminance" maskUnits="userSpaceOnUse" x="-1" y="0" width="257" height="44">
<path d="M255.999 0.653259H-0.00109863V43.3199H255.999V0.653259Z" fill="white"/>
</mask>
<g mask="url(#mask0_6135_21397)">
<path d="M7.18781 43.3199H-0.00109863V0.653259H41.7466C43.8637 0.653259 45.7885 1.18882 47.5208 2.25995C49.253 3.33107 50.6389 4.75926 51.6781 6.54446C52.7176 8.32969 53.2373 10.3133 53.2373 12.4952V20.6477C53.2373 22.8098 52.7176 24.7933 51.6781 26.5984C50.6389 28.3837 49.253 29.8117 47.5208 30.8829C45.7885 31.9541 43.8637 32.4895 41.7466 32.4895H7.18781V43.3199ZM41.7466 25.0512C42.94 25.0512 43.9504 24.6248 44.7781 23.7718C45.6248 22.9189 46.0482 21.8775 46.0482 20.6477V12.4952C46.0482 11.2654 45.6248 10.224 44.7781 9.37107C43.9504 8.4983 42.94 8.0619 41.7466 8.0619H7.18781V25.0512H41.7466Z" fill="white"/>
<path d="M114.385 43.3199H106.619L99.6319 29.7522H67.7004V43.3199H60.5116V0.653259H102.259C104.376 0.653259 106.301 1.18882 108.033 2.25995C109.766 3.33107 111.142 4.75926 112.162 6.54446C113.201 8.32969 113.721 10.3133 113.721 12.4952V17.9401C113.721 20.2807 113.105 22.423 111.873 24.3669C110.641 26.3108 108.976 27.7687 106.879 28.7407L114.385 43.3199ZM102.259 22.3436C103.452 22.3436 104.463 21.9172 105.291 21.0642C106.137 20.2113 106.561 19.1699 106.561 17.9401V12.4952C106.561 11.2654 106.137 10.224 105.291 9.37107C104.463 8.4983 103.452 8.0619 102.259 8.0619H67.7004V22.3436H102.259Z" fill="white"/>
<path d="M128.908 43.3199H121.72V0.653259H128.908V43.3199Z" fill="white"/>
<path d="M177.846 43.3199H147.242C145.298 43.3199 143.518 42.8341 141.901 41.8621C140.284 40.8901 138.995 39.5909 138.032 37.9642C137.07 36.3378 136.589 34.5426 136.589 32.5789V31.5671H143.778V32.5789C143.778 33.5309 144.105 34.3245 144.759 34.9591C145.433 35.5938 146.261 35.9114 147.242 35.9114H177.846C178.827 35.9114 179.645 35.5938 180.3 34.9591C180.973 34.3245 181.31 33.5309 181.31 32.5789V29.0383C181.31 28.0861 180.973 27.2926 180.3 26.6579C179.645 26.0232 178.827 25.7058 177.846 25.7058H147.242C145.298 25.7058 143.518 25.2198 141.901 24.2479C140.284 23.2759 138.995 21.9767 138.032 20.3501C137.07 18.7236 136.589 16.9186 136.589 14.935V11.4241C136.589 9.44049 137.07 7.63545 138.032 6.00891C138.995 4.38238 140.284 3.08314 141.901 2.11118C143.518 1.13924 145.298 0.653259 147.242 0.653259H177.846C179.809 0.653259 181.589 1.13924 183.187 2.11118C184.804 3.08314 186.093 4.38238 187.055 6.00891C188.018 7.63545 188.499 9.44049 188.499 11.4241V12.4059H181.31V11.4241C181.31 10.472 180.973 9.67851 180.3 9.04377C179.645 8.38921 178.827 8.0619 177.846 8.0619H147.242C146.261 8.0619 145.433 8.38921 144.759 9.04377C144.105 9.67851 143.778 10.472 143.778 11.4241V14.935C143.778 15.8871 144.105 16.6905 144.759 17.345C145.433 17.9798 146.261 18.2972 147.242 18.2972H177.846C179.809 18.2972 181.589 18.7831 183.187 19.7551C184.804 20.727 186.093 22.0263 187.055 23.6528C188.018 25.2595 188.499 27.0546 188.499 29.0383V32.5789C188.499 34.5426 188.018 36.3378 187.055 37.9642C186.093 39.5909 184.804 40.8901 183.187 41.8621C181.589 42.8341 179.809 43.3199 177.846 43.3199Z" fill="white"/>
<path d="M255.999 43.3199H248.81V13.5366L229.178 36.8039H223.028L203.396 13.5366V43.3199H196.207V0.653259H202.876L226.117 28.8597L249.33 0.653259H255.999V43.3199Z" fill="white"/>
</g>
</g>
<defs>
<clipPath id="clip0_6135_21397">
<rect width="256" height="42.6667" fill="white" transform="translate(-0.000244141 0.657158)"/>
</clipPath>
</defs>
</svg>
